<svg id="Layer_1" data-name="Layer 1" xmlns="http://www.w3.org/2000/svg" viewBox="0 0 30 30"><defs><style>.cls-1{fill:#a4acbb;}</style></defs><title>linkedin-logo</title><path class="cls-1" d="M27.78,0H2.21A2.19,2.19,0,0,0,0,2.16V27.84A2.19,2.19,0,0,0,2.21,30H27.78A2.19,2.19,0,0,0,30,27.84V2.16A2.19,2.19,0,0,0,27.78,0ZM8.9,25.56H4.45V11.25H8.9ZM6.67,9.29A2.58,2.58,0,1,1,9.25,6.71,2.58,2.58,0,0,1,6.67,9.29ZM25.57,25.56H21.12v-7c0-1.66,0-3.8-2.31-3.8s-2.67,1.81-2.67,3.68v7.08H11.69V11.25H16v2H16a4.67,4.67,0,0,1,4.21-2.31c4.51,0,5.34,3,5.34,6.82Z"/></svg>